<mxfile host="app.diagrams.net" modified="2024-03-22T10:58:34.084Z" agent="Mozilla/5.0 (Macintosh; Intel Mac OS X 10_15_7) AppleWebKit/537.36 (KHTML, like Gecko) Chrome/122.0.0.0 Safari/537.36" version="24.0.7" etag="IwAQXjykkkaw3bHg1DSe" type="github">
  <diagram name="Page-1" id="e6pI-nbjhmeQnamGHK4Y">
    <mxGraphModel>
      <root>
        <mxCell id="0" />
        <mxCell id="1" parent="0" />
      </root>
    </mxGraphModel>
  </diagram>
</mxfile>
